inDegrees=yes
name=ik_Shooting_orientations.mot
DataType=double
version=3
OpenSimVersion=4.3-2021-08-27-4bc7ad9
endheader
time	pelvis_tilt	pelvis_list	pelvis_rotation	pelvis_tx	pelvis_ty	pelvis_tz	hip_flexion_r	hip_adduction_r	hip_rotation_r	knee_angle_r	knee_angle_r_beta	ankle_angle_r	subtalar_angle_r	mtp_angle_r	hip_flexion_l	hip_adduction_l	hip_rotation_l	knee_angle_l	knee_angle_l_beta	ankle_angle_l	subtalar_angle_l	mtp_angle_l	lumbar_extension	lumbar_bending	lumbar_rotation	arm_flex_r	arm_add_r	arm_rot_r	elbow_flex_r	pro_sup_r	wrist_flex_r	wrist_dev_r	arm_flex_l	arm_add_l	arm_rot_l	elbow_flex_l	pro_sup_l	wrist_flex_l	wrist_dev_l
8.429999999999865	6.56676281395646	-47.61043716535203	9.961853049073008	0	0.93	0	-29.99796739304746	29.99693744382334	-39.99874760712068	55.71642093521536	0.9724349927466063	-4.999912538099278	0	0	3.556324489857841	-11.6931603055834	-39.99801161605929	55.71642093521538	0.9724349927466066	-4.999912538117429	0	0	0	0	0	0	0	0	0	0	0	0	0	0	0	5.954406730936959e-39	0	0	0
8.439999999999864	6.500790108088241	-47.67762517275736	9.819596860690121	0	0.93	0	-29.99796833422534	29.99694615310406	-39.99874585859769	55.71933247529725	0.972485808707339	-4.999912821798165	0	0	3.811336221159793	-12.04081422627755	-39.99800586621534	55.71933247529727	0.9724858087073394	-4.999912821816258	0	0	0	0	0	0	0	0	0	0	0	0	0	0	0	0	0	0	0
8.449999999999864	11.59432939393585	-35.13973321925462	9.646768025495737	0	0.93	0	-29.99788559459678	29.99482002779495	-39.99884674144365	55.72131728591665	0.9725204501876761	-4.999913054497903	-1.170251339605708e-18	6.750914454611028e-22	-14.9268144445	5.377460591341954	-39.9981330986473	55.72131728591667	0.9725204501876764	-4.999913054498115	-2.683417918405515e-21	3.071093187121781e-21	0	9.545902183917502e-25	-7.636726409862079e-37	-4.46129442545083e-18	3.009218938643928e-26	-3.605999226142495e-17	0	0	-4.212635560739108e-23	-3.16470160565121e-24	-3.522550208342531e-17	5.758514814916839e-18	-9.216297638600466e-17	0	0	3.468199825275117e-23	2.275829861574877e-24
8.459999999999864	-10.86544436148237	-63.52068581085689	-13.79724486946891	0	0.93	0	-29.99794221674733	29.99739803992526	-39.99830312112318	55.79109050116038	0.9737382225233818	-4.999920790772687	0	0	33.12354922421669	-39.05583437869134	-39.99764438749718	55.7910905011604	0.9737382225233822	-4.999920790772879	0	0	0	0	0	0	0	0	0	0	0	0	0	0	0	0	0	0	0
8.469999999999864	-0.7606128695201729	-34.83730301876731	-3.317179673872568	0	0.93	0	-29.99719933306384	29.99499825946825	-39.99867494830445	55.82815475199174	0.9743851157351742	-4.999924702751305	0	0	-6.82715405028386	7.868578077286419	-39.99830793868787	55.82815475199176	0.9743851157351745	-4.99992470275147	0	0	0	0	0	0	0	0	0	0	0	0	0	0	0	0	0	0	0
8.479999999999864	-1.019200046323642	-35.46756126769682	-3.494383358882704	0	0.93	0	-29.99721414403443	29.99512447092334	-39.99866538846589	55.83432207030994	0.9744927557458453	-4.99992525214807	0	0	-5.411546473169399	6.501224925626872	-39.99830341305073	55.83432207030996	0.9744927557458456	-4.999925252148232	0	0	0	0	0	0	0	0	6.087021917619738e-40	3.927587374565029e-40	0	0	0	0	0	6.087021917619738e-40	3.927587374565029e-40	0	0
8.489999999999863	5.878037036719427	-47.99925410048916	8.932853367398382	0	0.93	0	-29.99797446328373	29.99695625572304	-39.99873038817269	55.84217957455608	0.9746298950659298	-4.999926050970711	1.460329265884564e-18	4.005882080270644e-19	5.044398414918196	-13.34444821233621	-39.9979598830091	55.84217957455609	0.9746298950659301	-4.999926050970872	-4.077496519148149e-19	-1.288933008178404e-18	0	4.273237576118827e-23	-8.145836530882981e-36	3.243706671858775e-17	5.274750589106153e-26	-4.569158960357586e-17	3.970415682160464e-16	3.970416216463412e-16	1.382347880648357e-23	4.454754352494834e-24	-1.73734531197367e-17	1.998970584546894e-17	1.298055699297567e-18	3.970415682148261e-16	3.970416216427253e-16	4.196725723765912e-23	-6.552683309733066e-24
8.499999999999863	19.77968097324972	-52.46650597467538	33.38956317387085	0	0.93	0	-29.99839092769755	29.99784590824306	-39.99888544077335	55.84492221119707	0.974677763105501	-4.999926328665193	0	0	3.398210961717258	-21.53767564226414	-39.99686006116701	55.84492221119709	0.9746777631055014	-4.999926328665356	0	0	0	0	0	0	0	0	5.625653075480343e-39	0	0	0	0	0	0	5.625653075480343e-39	0	0	0
8.509999999999863	5.685495845727882	-48.02268693386082	8.68917563820483	0	0.93	0	-29.99797467022137	29.99696472802181	-39.99872426188935	55.84912028501217	0.9747510333158163	-4.999926756138071	0	0	5.373973593567808	-13.74960766675398	-39.99794484250116	55.84912028501219	0.9747510333158166	-4.999926756138232	0	0	0	0	0	0	0	0	4.849753225487831e-39	4.849753225487831e-39	0	0	0	0	0	4.849753225487831e-39	4.849753225487831e-39	0	0
8.519999999999863	5.615538326334191	-48.14840853760375	8.550249144805317	0	0.93	0	-29.99797525678645	29.99696569571205	-39.99872181456507	55.85251235008148	0.9748102360197175	-4.999927036696284	1.774934620175362e-18	-6.762374961039788e-22	5.700293726436467	-14.24903937737111	-39.9979365431907	55.85251235008149	0.9748102360197178	-4.999927036696446	4.351701999372997e-23	-3.260229329059133e-22	0	-6.989046747443356e-23	6.109377397693801e-36	-7.615435200530014e-20	-4.077407151290077e-28	2.638597896503994e-17	0	0	1.335088433093886e-23	1.204808563515648e-24	3.103480551532004e-18	3.534005827016262e-18	-6.430534213757681e-17	0	0	-8.904084896930624e-24	2.60595897876869e-24
8.529999999999863	5.501204956620771	-48.12147056135305	8.41688485027109	0	0.93	0	-29.99797496142569	29.99696783100485	-39.9987188258574	55.85541246025473	0.9748608524909115	-4.999927262675451	0	0	5.788115743997011	-14.36640308421685	-39.99792833287765	55.85541246025475	0.9748608524909118	-4.999927262675614	0	0	0	0	0	0	0	0	1.052357267868557e-38	1.945590240772649e-39	0	0	0	0	0	1.052357267868557e-38	1.945590240772649e-39	0	0
8.539999999999862	-11.00478402928932	-62.4398653589147	-13.94353586020388	0	0.93	0	-29.99792725411111	29.9973651037303	-39.9982947329285	55.86360432720842	0.9750038275411387	-4.999928078407334	0	0	32.06577530761665	-38.60035039096574	-39.99760838449452	55.86360432720844	0.975003827541139	-4.999928078407497	0	0	0	0	0	0	0	0	0	0	0	0	0	0	0	0	0	0	0
